<?xml version="1.0" standalone="no"?>
<!DOCTYPE svg PUBLIC "-//W3C//DTD SVG 1.1//EN" "http://www.w3.org/Graphics/SVG/1.1/DTD/svg11.dtd" >
<svg xmlns="http://www.w3.org/2000/svg">
<metadata></metadata>
<defs>
<font id="HelveticaCondensedBold" horiz-adv-x="1024" >
<font-face units-per-em="2048" ascent="1638" descent="-410" />
<missing-glyph horiz-adv-x="512" />
<glyph horiz-adv-x="0" />
<glyph horiz-adv-x="2048" />
<glyph unicode="&#xd;" horiz-adv-x="512" />
<glyph unicode=" "  horiz-adv-x="512" />
<glyph unicode="&#x09;" horiz-adv-x="512" />
<glyph unicode="&#xa0;" horiz-adv-x="512" />
<glyph unicode="!" horiz-adv-x="682" d="M207 0v270h270v-270h-270zM207 1020v516h270v-525q0 -123 -46 -614h-178q-46 498 -46 623z" />
<glyph unicode="&#x22;" horiz-adv-x="682" d="M26 952v560h245v-560h-245zM400 952v560h245v-560h-245z" />
<glyph unicode="#" d="M63 472v201h200l21 192h-172v201h194l55 438h170l-53 -438h147l51 438h175l-53 -438h152v-201h-176l-20 -192h146v-201h-169l-57 -472h-175l57 472h-148l-59 -472h-170l58 472h-174zM433 673h143l25 192h-145z" />
<glyph unicode="$" d="M76 362v95h242q0 -137 23 -199.5t105 -85.5v462q-200 116 -276 226.5t-76 271.5t96 262q97 101 256 118v128h125v-128q177 -17 265 -110.5t88 -305.5h-242q0 91 -21.5 140.5t-89.5 71.5v-414q226 -130 305 -233t79 -241q0 -221 -94.5 -325t-289.5 -134v-224h-125v224 q-170 9 -270 118.5t-100 282.5zM336 1152q0 -138 110 -203v359q-47 -5 -78.5 -50t-31.5 -106zM571 172q124 32 124 182t-124 231v-413z" />
<glyph unicode="%" horiz-adv-x="1706" d="M64 1122.5q0 221.5 78 297.5t234.5 76t236.5 -72t80 -297t-74.5 -306t-243.5 -81t-240 80.5t-71 302zM261 1068q0 -109 29 -145q30 -35 91.5 -35t88 37t26.5 144v97q0 104 -26 143t-88.5 39t-91.5 -38t-29 -145v-97zM432 -31l689 1559h143l-689 -1559h-143zM1019 388 q0 223 79 295.5t240 72.5t235.5 -79.5t74.5 -309t-84.5 -298.5t-243 -69t-230.5 82q-71 83 -71 306zM1216 328q0 -109 29 -145q30 -35 91.5 -35t88 37t26.5 144v97q0 104 -26 143t-88.5 39t-91.5 -38t-29 -145v-97z" />
<glyph unicode="&#x26;" horiz-adv-x="1366" d="M130 429q0 277 288 476l-71 134q-47 107 -47 198q0 157 99 244t253 87q137 0 231.5 -89.5t94.5 -230.5q0 -228 -235 -380l190 -329q48 156 48 277h229q0 -306 -136 -515l184 -309h-309l-56 105q-143 -129 -338.5 -129t-310.5 132q-114 132 -114 329zM394 464.5 q0 -90.5 55.5 -177.5t151 -87t182.5 81l-243 424q-46 -21 -96 -85.5t-50 -155zM546 1264q0 -52 81 -202q118 92 118 180q0 54 -28 88t-72 34q-99 0 -99 -100z" />
<glyph unicode="'" horiz-adv-x="512" d="M128 952v560h245v-560h-245z" />
<glyph unicode="(" horiz-adv-x="682" d="M114 555q0 -547 289 -959h169q-108 205 -148 460t-40 558.5t40 502t152 459.5h-169q-168 -292 -230.5 -505t-62.5 -516z" />
<glyph unicode=")" horiz-adv-x="682" d="M106 1576h169q168 -292 230.5 -505t62.5 -516q0 -547 -289 -959h-169q108 205 148 460t40 558.5t-40 502t-152 459.5z" />
<glyph unicode="*" d="M160 1196l51 156l221 -64v224h165v-224l217 64l55 -160l-217 -56l131 -196l-135 -97l-125 192l-142 -192l-135 97l140 190z" />
<glyph unicode="+" d="M48 391v225h352v384h225v-384h352v-225h-352v-384h-225v384h-352z" />
<glyph unicode="," horiz-adv-x="682" d="M207 0v272h270v-263q0 -278 -270 -313v89q59 4 101 56t42 127v32h-143z" />
<glyph unicode="-" horiz-adv-x="682" d="M96 522v236h480v-236h-480z" />
<glyph unicode="." horiz-adv-x="682" d="M207 0v270h270v-270h-270z" />
<glyph unicode="/" horiz-adv-x="569" d="M-21 -192l479 1728h177l-479 -1728h-177z" />
<glyph unicode="0" d="M99 416v690q0 429 419 429q412 0 412 -440v-682q0 -444 -412 -444q-419 0 -419 447zM386 408q0 -214 122 -214q135 0 135 218v684q0 214 -128.5 214t-128.5 -214v-688z" />
<glyph unicode="1" d="M80 1064v204q356 0 428 260h211v-1528h-287v1064h-352z" />
<glyph unicode="2" d="M67 0q6 216 49 346.5t248 346.5l135 142q86 88 115 143q30 55 30 153q0 179 -139 179q-99 0 -127.5 -61.5t-28.5 -225.5h-269v62q0 450 422 450q216 0 322.5 -114.5t106.5 -283.5q0 -228 -190 -421l-219 -228q-150 -153 -150 -263h537v-225h-842z" />
<glyph unicode="3" d="M58 415v98h269q0 -185 31 -252t129.5 -67t122.5 70t24 195t-38 185.5t-250 60.5v225q154 0 210 41.5t56 170.5q0 168 -133.5 168t-133.5 -128v-95h-269v56q0 392 407 392t407 -389q0 -139 -56.5 -224t-154.5 -98q242 -34 242 -371q0 -484 -445 -484q-418 0 -418 446z" />
<glyph unicode="4" d="M49 313v223l466 968h318v-966h130v-225h-130v-313h-287v313h-497zM260 538h286v626z" />
<glyph unicode="5" d="M77 481h269q0 -160 33 -224q34 -63 126 -63q154 0 154 260v103q0 260 -167 260q-69 0 -108 -38.5t-39 -72.5h-255l40 798h744v-225h-524l-18 -325q80 88 225 88q208 0 298.5 -135.5t90.5 -410t-104.5 -401t-340 -126.5t-330.5 115q-94 115 -94 397z" />
<glyph unicode="6" d="M85 538v381q0 331 96.5 473.5t349.5 142.5q205 0 293 -95t88 -220v-37h-264q-9 127 -106 127q-175 0 -175 -246v-147q69 109 218 109q188 0 273 -118t85 -387.5t-90.5 -410.5t-336 -141t-338.5 146.5t-93 422.5zM371 443q0 -136 31 -192.5t107 -56.5t111.5 44t35.5 162 v214q0 187 -142.5 187t-142.5 -225v-133z" />
<glyph unicode="7" d="M64 1279v225h864v-206q-187 -335 -276 -690t-99 -608h-296q0 179 122.5 596.5t293.5 682.5h-609z" />
<glyph unicode="8" d="M85 430q0 185 53 269t163 131q-93 42 -139 120q-45 79 -45 233t106 253t297 99q396 0 396 -383q0 -156 -47 -223t-150 -105q106 -28 167.5 -101t61.5 -286q0 -468 -425 -468q-228 0 -333 109.5t-105 351.5zM372 384q0 -190 148 -190q141 0 141 210v118q0 198 -141 198 q-148 0 -148 -218v-118zM381 1117q0 -193 135.5 -193t135.5 213q0 173 -132 173q-139 0 -139 -193z" />
<glyph unicode="9" d="M67 989q0 276 95 411q96 135 336.5 135t333.5 -147t93 -422v-382q0 -331 -97 -473t-349 -142q-182 0 -282 86q-99 87 -99 228v38h264q6 -127 106 -127q175 0 175 245v148q-70 -109 -218 -109q-189 0 -274 117q-84 118 -84 394zM354 889q0 -186 142.5 -186t142.5 225v132 q0 136 -31.5 193t-107.5 57t-111 -44.5t-35 -161.5v-215z" />
<glyph unicode=":" horiz-adv-x="569" d="M150 0v270h270v-270h-270zM150 868v270h270v-270h-270z" />
<glyph unicode=";" horiz-adv-x="569" d="M150 0v272h270v-263q0 -278 -270 -313v89q59 4 101 56t42 127v32h-143zM150 868v270h270v-270h-270z" />
<glyph unicode="&#x3c;" d="M98 411l848 -460v229l-603 329l603 346v229l-848 -469v-204z" />
<glyph unicode="=" d="M48 196v225h912v-225h-912zM48 597v225h912v-225h-912z" />
<glyph unicode="&#x3e;" d="M80 -49v229l603 329l-603 346v229l848 -469v-204z" />
<glyph unicode="?" d="M106 1137v75q0 163 102 263.5t290 100.5t296.5 -99t108.5 -271.5t-89 -291.5t-181.5 -213.5t-92.5 -250.5v-36h-241v42q0 223 106 351l131 158q84 101 84 229q0 171 -118 171q-75 0 -109 -39.5t-34 -188.5h-253zM295 0v270h270v-270h-270z" />
<glyph unicode="@" horiz-adv-x="1706" d="M80 776.5q0 340.5 233 570t576 229.5t542.5 -204.5t199.5 -437.5q0 -283 -169 -446q-90 -90 -193 -133.5t-164 -43.5q-97 0 -97 104v40q-124 -128 -264 -128t-235 105q-94 105 -94 286.5t122 324t305.5 142.5t262.5 -128l23 113h200l-112 -646q0 -32 31 -32q47 0 136 109 t89 288q0 251 -165.5 393.5t-434 142.5t-451 -181t-182.5 -470.5t194 -472.5q195 -182 485 -182q215 0 421 185h196q-247 -336 -631 -336q-351 0 -588 234q-236 234 -236 574.5zM642 731q0 -109 49 -162t131 -53t150 80.5t68 202.5q0 80 -40 138.5t-108 58.5q-98 0 -174 -78 t-76 -187z" />
<glyph unicode="A" horiz-adv-x="1139" d="M18 0l368 1536h385l352 -1536h-309l-76 392h-334l-77 -392h-309zM449 617h245l-116 631z" />
<glyph unicode="B" horiz-adv-x="1139" d="M134 0v1536h496q367 0 367 -394q0 -248 -188 -321q228 -41 228 -359q0 -462 -392 -462h-511zM421 225h145q95 0 135 55t40 185.5t-47.5 176.5t-158.5 46h-114v-463zM421 913h96q116 0 154.5 44t38.5 154.5t-29 155t-117 44.5h-143v-398z" />
<glyph unicode="C" horiz-adv-x="1139" d="M112 599v325q0 363 114.5 503.5t356 140.5t345.5 -125t104 -387h-282q0 142 -29 211t-110 69q-203 0 -203 -320v-498q0 -172 52.5 -245t152.5 -73q76 0 112 77.5t36 266.5h287q0 -268 -98 -422t-337 -154q-282 0 -392 146q-109 147 -109 485z" />
<glyph unicode="D" horiz-adv-x="1251" d="M148 0v1536h590q136 0 245 -106q78 -73 109 -209.5t31 -433t-38 -451.5t-131.5 -245.5t-272.5 -90.5h-533zM435 225h133q161 0 210 108.5t49 434t-44 434.5t-169 109h-179v-1086z" />
<glyph unicode="E" d="M130 0v1536h815v-225h-528v-390h488v-225h-488v-471h528v-225h-815z" />
<glyph unicode="F" d="M148 0v1536h815v-225h-528v-390h497v-225h-497v-696h-287z" />
<glyph unicode="G" horiz-adv-x="1251" d="M112 599v310q0 382 119.5 520.5t387 138.5t382.5 -124t115 -388h-287q0 145 -45 212.5t-167 67.5q-209 0 -209 -320v-498q0 -318 205 -318q122 0 171.5 102t49.5 297h-192v225h470v-824h-215v192q-79 -224 -310 -224q-257 0 -366 141.5t-109 489.5z" />
<glyph unicode="H" horiz-adv-x="1251" d="M139 0v1536h287v-607h401v607h287v-1536h-287v704h-401v-704h-287z" />
<glyph unicode="I" horiz-adv-x="569" d="M143 0v1536h287v-1536h-287z" />
<glyph unicode="J" horiz-adv-x="909" d="M13 352v144h287v-187q0 -109 94 -109q99 0 99 141v1195h287v-1201q0 -193 -94 -280t-274.5 -87t-289.5 82.5t-109 301.5z" />
<glyph unicode="K" horiz-adv-x="1139" d="M139 0v1536h287v-660l349 660h323l-380 -666l398 -870h-323l-270 606l-97 -168v-438h-287z" />
<glyph unicode="L" d="M139 0v1536h287v-1311h528v-225h-815z" />
<glyph unicode="M" horiz-adv-x="1593" d="M139 0v1536h457l209 -942l204 942h457v-1536h-287v1326l-289 -1326h-175l-289 1326v-1326h-287z" />
<glyph unicode="N" horiz-adv-x="1251" d="M139 0v1536h300l388 -972v972h287v-1536h-300l-388 948v-948h-287z" />
<glyph unicode="O" horiz-adv-x="1251" d="M125 599v306q0 379 116 521t400 142t384 -159.5t100 -503.5v-308q0 -340 -108.5 -484.5t-383 -144.5t-391.5 138t-117 493zM421 518q0 -318 199 -318q209 0 209 306v489q0 341 -204 341t-204 -320v-498z" />
<glyph unicode="P" horiz-adv-x="1139" d="M139 0v1536h575q179 0 273.5 -111.5t94.5 -322.5q0 -462 -459 -462h-197v-640h-287zM426 865h145q105 0 160 51.5t55 177.5t-44 171.5t-171 45.5h-145v-446z" />
<glyph unicode="Q" horiz-adv-x="1251" d="M125 599v306q0 356 104.5 509.5t384.5 153.5t395.5 -138.5t115.5 -529.5v-308q0 -308 -85 -450l157 -152l-143 -134l-163 154q-93 -42 -263 -42q-260 0 -382 131q-121 132 -121 500zM421 518q0 -318 201 -318q36 0 67 4l-52 50l157 130l14 -13q21 40 21 134v490 q0 165 -43.5 253t-160.5 88q-204 0 -204 -320v-498z" />
<glyph unicode="R" horiz-adv-x="1251" d="M134 0v1536h548q230 0 328.5 -99t98.5 -271q0 -336 -242 -369q228 -34 228 -285v-120q0 -308 63 -364v-28h-314q-31 80 -31 376q0 185 -48 236.5t-240 51.5h-104v-664h-287zM421 889h208q180 0 180 221q0 113 -40.5 157t-139.5 44h-208v-422z" />
<glyph unicode="S" horiz-adv-x="1139" d="M112 424v120h287v-89q0 -255 182 -255q163 0 163 176q0 95 -59.5 155t-227.5 166t-257 212q-88 106 -88 254q0 405 452 405q241 0 342.5 -117.5t101.5 -378.5h-278v51q0 213 -166 213q-156 0 -156 -144q0 -79 46 -125q47 -45 235 -169t269.5 -222.5t81.5 -258.5 q0 -211 -119 -330t-341 -119q-468 0 -468 456z" />
<glyph unicode="T" d="M32 1311v225h959v-225h-336v-1311h-287v1311h-336z" />
<glyph unicode="U" horiz-adv-x="1251" d="M139 458v1078h287v-1054q0 -155 47 -218.5t153 -63.5t153.5 59t47.5 223v1054h287v-1078q0 -253 -107 -371.5t-376.5 -118.5t-380.5 113.5t-111 376.5z" />
<glyph unicode="V" horiz-adv-x="1139" d="M48 1536h309l224 -1266l211 1266h309l-336 -1536h-381z" />
<glyph unicode="W" horiz-adv-x="1706" d="M48 1536h296l180 -1176l212 1176h237l227 -1182l165 1182h296l-288 -1536h-345l-176 954l-171 -954h-345z" />
<glyph unicode="X" horiz-adv-x="1139" d="M22 0l381 786l-368 750h323l219 -480l210 480h323l-374 -756l387 -780h-320l-233 510l-234 -510h-314z" />
<glyph unicode="Y" horiz-adv-x="1139" d="M16 1536h314l234 -588l225 588h314l-400 -882v-654h-287v654z" />
<glyph unicode="Z" d="M67 0v228l566 1083h-535v225h849v-228l-571 -1083h589v-225h-898z" />
<glyph unicode="[" horiz-adv-x="682" d="M172 -194h400v156h-176v1418h176v156h-400v-1730z" />
<glyph unicode="\" horiz-adv-x="512" d="M-72 1536h177l479 -1728h-177z" />
<glyph unicode="]" horiz-adv-x="682" d="M110 -38h176v1418h-176v156h400v-1730h-400v156z" />
<glyph unicode="^" d="M19 763l368 779h246l368 -779l-208 -96l-283 574l-283 -574z" />
<glyph unicode="_" d="M0 -151h1024v-103h-1024v103z" />
<glyph unicode="`" horiz-adv-x="682" d="M0 1600h317l195 -304h-207z" />
<glyph unicode="a" d="M87 313q0 156 77 236q78 80 221.5 137.5t188.5 90t45 93t-24.5 84.5t-104.5 24t-110.5 -34t-30.5 -130h-254q0 205 99.5 286.5t303.5 81.5t293.5 -76t89.5 -252v-697q0 -86 21 -157h-254q-16 38 -16 72t4 58q-107 -160 -244 -160q-305 0 -305 343zM353 322 q0 -148 127 -148q135 0 135 179v253l-157 -103q-65 -41 -85 -75.5t-20 -105.5z" />
<glyph unicode="b" d="M133 0v1536h266v-498q65 144 232 144q132 0 206 -85t74 -313v-414q0 -400 -270 -400q-172 0 -254 160v-130h-254zM399 390q0 -216 129 -216q117 0 117 207v398q0 119 -29 159t-90 40q-127 0 -127 -226v-362z" />
<glyph unicode="c" horiz-adv-x="909" d="M100 391v383q0 408 359 408q185 0 278 -91.5t93 -244.5v-96h-266v125q0 103 -96 103q-102 0 -102 -186v-436q0 -182 106 -182q92 0 92 182v94h266v-107q0 -373 -365 -373t-365 421z" />
<glyph unicode="d" d="M108 368v394q0 235 72.5 327.5t201.5 92.5q176 0 238 -144v498h266v-1536h-266v130q-70 -160 -217.5 -160t-221.5 87q-73 87 -73 311zM374 355q0 -181 114 -181q132 0 132 229v368q0 207 -129 207q-117 0 -117 -155v-468z" />
<glyph unicode="e" d="M108 439v313q0 430 391 430q199 0 301 -89t102 -394v-177h-528v-166q0 -94 32.5 -138t104.5 -44q125 0 125 158v54h266q0 -416 -369 -416q-221 0 -323 109t-102 360zM374 726h262v109q0 80 -31.5 111.5t-106 31.5t-99.5 -42t-25 -140v-70z" />
<glyph unicode="f" horiz-adv-x="569" d="M48 957v195h96v123q0 138 61 198.5t220 60.5h97v-213q-29 12 -59 12q-53 0 -53 -54v-127h112v-195h-112v-957h-266v957h-96z" />
<glyph unicode="g" d="M129 368v416q0 216 67 307q68 91 208 91q168 0 225 -161v131h278v-1117q0 -421 -381 -421q-210 0 -292 65.5t-89 190.5h266q5 -65 93 -65h12q125 0 125 181v142q-77 -158 -250 -158q-262 0 -262 398zM395 373q0 -199 111 -199q123 0 123 229v361q0 214 -121 214 q-113 0 -113 -149v-456z" />
<glyph unicode="h" d="M125 0v1536h266v-514q77 160 246 160q119 0 192.5 -73.5t73.5 -217.5v-891h-266v791q0 101 -24.5 144t-89.5 43q-132 0 -132 -206v-772h-266z" />
<glyph unicode="i" horiz-adv-x="569" d="M150 0v1152h266v-1152h-266zM150 1296v243h266v-243h-266z" />
<glyph unicode="j" horiz-adv-x="569" d="M62 -180h37q63 0 63 73v1259h266v-1295q0 -120 -55 -183.5t-227 -63.5q-52 0 -84 3v207zM162 1296v243h266v-243h-266z" />
<glyph unicode="k" horiz-adv-x="909" d="M100 0v1536h266v-843l253 459h291l-296 -473l288 -679h-295l-169 468l-72 -117v-351h-266z" />
<glyph unicode="l" horiz-adv-x="569" d="M150 0v1536h266v-1536h-266z" />
<glyph unicode="m" horiz-adv-x="1593" d="M133 0v1152h266v-130q78 160 267 160q106 0 168.5 -47.5t71.5 -112.5q20 58 86 109q67 51 188.5 51t198 -67t76.5 -182v-933h-266v776q0 107 -25 154.5t-98.5 47.5t-106 -52.5t-32.5 -165.5v-760h-266v791q0 103 -28 145t-98.5 42t-103 -40t-32.5 -166v-772h-266z" />
<glyph unicode="n" d="M125 0v1152h266v-130q77 160 246 160q119 0 192.5 -73.5t73.5 -217.5v-891h-266v791q0 101 -24.5 144t-89.5 43q-132 0 -132 -206v-772h-266z" />
<glyph unicode="o" d="M108 500v133q0 343 101 446t311.5 103t304 -108t93.5 -412v-138q0 -332 -86 -443t-320 -111t-319 112.5t-85 417.5zM374 369q0 -121 31 -158t113.5 -37t108 41t25.5 154v425q0 184 -132 184q-77 0 -111.5 -43t-34.5 -142v-424z" />
<glyph unicode="p" d="M137 -384v1536h266v-130q69 160 228 160q136 0 210 -87.5t74 -310.5v-423q0 -391 -274 -391q-89 0 -145 32.5t-93 111.5v-498h-266zM403 380q0 -206 129 -206q117 0 117 207v422q0 175 -114 175q-132 0 -132 -229v-369z" />
<glyph unicode="q" d="M125 368v416q0 216 69 307t213 91q172 0 230 -160v130h266v-1536h-266v514q-43 -87 -96.5 -123.5t-147.5 -36.5q-268 0 -268 398zM391 373q0 -199 117 -199q129 0 129 229v361q0 214 -129 214q-117 0 -117 -164v-441z" />
<glyph unicode="r" horiz-adv-x="682" d="M125 0v1152h258v-204q93 234 280 234v-313q-30 3 -57 3q-215 0 -215 -194v-678h-266z" />
<glyph unicode="s" horiz-adv-x="909" d="M60 334q0 34 4 52h266q-4 -38 -4 -71q0 -141 115 -141t115 102q0 61 -40.5 94t-106.5 78l-149 106q-196 137 -196 352q0 276 387 276q193 0 284 -94t91 -290h-266q0 122 -32.5 151t-88.5 29q-109 0 -109 -95q0 -44 28 -74.5t90 -73.5l193 -132q185 -127 185 -301 q0 -332 -383 -332t-383 364z" />
<glyph unicode="t" horiz-adv-x="569" d="M29 957v195h108v320h266v-320h112v-195h-112v-691q0 -23 10 -47t64 -24q17 0 38 3v-207q-66 -9 -161 -9t-156 47t-61 159v769h-108z" />
<glyph unicode="u" d="M121 270v882h266v-818q0 -160 107 -160q123 0 123 206v772h266v-1152h-254v178q-65 -208 -252 -208q-139 0 -198 72q-58 73 -58 228z" />
<glyph unicode="v" horiz-adv-x="909" d="M16 1152h287l153 -873l162 873h275l-272 -1152h-333z" />
<glyph unicode="w" horiz-adv-x="1366" d="M21 1152h279l123 -887l142 887h220l156 -887l122 887h266l-240 -1152h-291l-121 670l-121 -670h-295z" />
<glyph unicode="x" horiz-adv-x="909" d="M17 0l300 585l-288 567h312l117 -279l128 279h295l-289 -562l293 -590h-300l-132 315l-132 -315h-304z" />
<glyph unicode="y" horiz-adv-x="909" d="M16 1152h279l159 -828l156 828h270l-304 -1288q-34 -140 -97 -200t-196 -60q-41 0 -123 9v207q24 -3 69 -3q91 0 91 59q0 44 -17 109z" />
<glyph unicode="z" horiz-adv-x="797" d="M46 0v207l404 741h-396v204h696v-189l-421 -759h421v-204h-704z" />
<glyph unicode="{" horiz-adv-x="561" d="M-80 664q91 18 125.5 73t34.5 162v370q0 127 55 197t193 70h168q-102 -23 -134.5 -80.5t-32.5 -146.5v-389q0 -100 -32.5 -163.5t-142.5 -88.5q89 -13 132 -76t43 -196v-366q0 -181 167 -222h-148q-150 0 -209 67.5t-59 236.5v323q0 99 -35.5 153t-124.5 76z" />
<glyph unicode="|" horiz-adv-x="512" d="M160 -502v2048h205v-2048h-205z" />
<glyph unicode="}" horiz-adv-x="561" d="M64 -192q167 41 167 225v364q0 146 45 201q46 55 130 70q-82 18 -129 66q-46 48 -46 185v388q0 91 -33 149t-134 80h167q128 0 188.5 -61t60.5 -205v-370q0 -120 40.5 -170t119.5 -66q-77 -17 -118.5 -68.5t-41.5 -162.5v-323q0 -168 -59.5 -235t-209.5 -67h-147z" />
<glyph unicode="~" d="M48 463q119 248 274 248q70 0 203 -64t176.5 -64t77.5 44.5t65 99.5l116 -148q-47 -84 -107.5 -158t-145.5 -74t-219.5 64t-176 64t-72.5 -38.5t-75 -121.5z" />
<glyph unicode="&#xa1;" horiz-adv-x="682" d="M209 177q0 123 46 614h178q46 -498 46 -623v-516h-270v525zM209 918v270h270v-270h-270z" />
<glyph unicode="&#xa2;" d="M148 390v374q0 419 364 419q34 0 48 -4l37 196h96l-36 -210q222 -72 222 -327v-87h-264l2 177l-136 -731q11 -7 43 -7q91 0 91 151v100h264v-79q0 -401 -358 -401q-50 0 -79 5l-39 -213h-94l41 235q-202 65 -202 402zM404 282l120 670q-9 6 -21 6q-99 0 -99 -164v-512z " />
<glyph unicode="&#xa3;" d="M72 163q215 124 215 389q0 78 -35 137h-176v134h118q-82 138 -82 327.5t123 303t318 113.5t308.5 -97t113.5 -288v-95h-264q0 129 -29 192t-128 63q-173 0 -173 -219q0 -87 86 -300h300v-134h-247q18 -63 18 -124q0 -225 -251 -389q46 21 95 42.5t112 21.5t150 -19.5 t122 -19.5q68 0 173 64l58 -222q-114 -74 -260 -74q-77 0 -188 31.5t-195 31.5t-210 -63z" />
<glyph unicode="&#xa4;" d="M17 279l85 91q-70 139 -70 269t70 260l-85 88l155 162l85 -89q125 78 248.5 78t261.5 -80l91 91l147 -162l-87 -89q76 -133 76 -269t-75 -256l86 -94l-147 -162l-91 91q-119 -80 -248 -80t-262 78l-85 -89zM274 634.5q0 -102.5 71.5 -183.5t169 -81t167.5 81t70 183.5 t-70 182t-168.5 79.5t-169 -79.5t-70.5 -182z" />
<glyph unicode="&#xa5;" d="M-32 1528h318l230 -579l230 579h309l-400 -877v-116h224v-102h-224v-128h224v-102h-224v-203h-287v203h-224v102h224v128h-224v102h224v116z" />
<glyph unicode="&#xa6;" horiz-adv-x="512" d="M160 -352v720h205v-720h-205zM160 656v720h205v-720h-205z" />
<glyph unicode="&#xa7;" d="M76 686q0 208 177 303q-41 33 -73 89t-32 161q0 148 104.5 242.5t280 94.5t270 -94.5t94.5 -273.5h-253q0 165 -123.5 165t-123.5 -113q0 -52 24 -88q25 -35 90 -87l269 -212q168 -131 168 -319.5t-169 -295.5q46 -39 80 -120t34 -154q0 -150 -115.5 -254t-292.5 -104 t-276 101.5t-99 298.5h258q0 -193 146 -193q49 0 85 31t36 109.5t-110 165.5l-281 221q-94 76 -131 147.5t-37 178.5zM308 710.5q0 -60.5 80 -127.5l240 -195q79 49 79 123.5t-92 151.5l-220 182q-28 -7 -57.5 -40.5t-29.5 -94z" />
<glyph unicode="&#xa8;" horiz-adv-x="682" d="M16 1328v236h260v-236h-260zM420 1328v236h260v-236h-260z" />
<glyph unicode="&#xa9;" horiz-adv-x="1700" d="M48 766q0 331 235.5 566.5t568 235.5t568 -233.5t235.5 -566.5t-233.5 -570t-569.5 -237t-570 237t-234 568zM199 769q0 -275 191 -466t462.5 -191t461.5 191t190 469t-198 461.5t-439 183.5q-282 0 -475 -186.5t-193 -461.5zM439 781q0 203 121 331q122 128 327 128 q157 0 256.5 -88.5t120.5 -215.5h-181q-7 57 -59 107t-157.5 50t-176 -88.5t-70.5 -226t78.5 -228.5t190.5 -91q80 0 135 51t59 122h181q-15 -143 -122.5 -231.5t-251.5 -88.5q-203 0 -327 133t-124 336z" />
<glyph unicode="&#xaa;" horiz-adv-x="614" d="M45 1047q0 89 55 140t176 91t121 100q0 73 -84 73q-93 0 -93 -108h-166q0 130 67 177t200 47q251 0 251 -197v-412q0 -66 13 -102h-164q-10 18 -10 40t4 37q-67 -95 -163 -95q-207 0 -207 209zM220 1045q0 -87 86 -87q91 0 91 109v153l-110 -64q-67 -38 -67 -111z" />
<glyph unicode="&#xab;" d="M151 414l320 -288v232l-189 163l189 160v228l-320 -288v-207zM535 414l320 -288v232l-189 163l189 160v228l-320 -288v-207z" />
<glyph unicode="&#xac;" d="M48 595v225h912v-609h-225v384h-687z" />
<glyph unicode="&#xad;" horiz-adv-x="682" d="M96 522v236h480v-236h-480z" />
<glyph unicode="&#xae;" horiz-adv-x="1700" d="M48 766q0 331 235.5 566.5t568 235.5t568 -233.5t235.5 -566.5t-233.5 -570t-569.5 -237t-570 237t-234 568zM199 769q0 -275 191 -466t462.5 -191t461.5 191t190 469t-198 461.5t-439 183.5q-282 0 -475 -186.5t-193 -461.5zM519 328v872h434q154 0 240.5 -58t86.5 -210 q0 -226 -238 -236l212 -368h-200l-193 368h-172v-368h-170zM689 824h274q147 0 147 135q0 113 -185 113h-236v-248z" />
<glyph unicode="&#xaf;" horiz-adv-x="682" d="M-16 1376v151h704v-151h-704z" />
<glyph unicode="&#xb0;" horiz-adv-x="819" d="M96 1228.5q0 132.5 92 216t213 83.5t212.5 -85.5t91.5 -216t-88 -219.5t-215.5 -89t-216.5 89t-89 221.5zM257 1221.5q0 -59.5 43.5 -100.5t103 -41t100 41t40.5 100.5t-40.5 102t-102 42.5t-103 -42.5t-41.5 -102z" />
<glyph unicode="&#xb1;" d="M48 -29v225h929v-225h-929zM48 548v225h352v272h225v-272h352v-225h-352v-272h-225v272h-352z" />
<glyph unicode="&#xb2;" horiz-adv-x="614" d="M32 608q0 119 29 207q30 88 166 215l91 88q88 83 88 171q0 115 -87 115q-104 0 -104 -113v-56h-175v52q0 252 280 252q136 0 204 -71t68 -168q0 -142 -120 -257l-143 -135q-100 -96 -100 -165h346v-135h-543z" />
<glyph unicode="&#xb3;" horiz-adv-x="614" d="M25 841v68h175v-51q0 -134 102 -134q56 0 78.5 32t22.5 130.5t-32.5 124t-153.5 25.5v135q91 0 131.5 19.5t40.5 104.5q0 109 -84 109q-94 0 -94 -85v-52h-175v40q0 232 266.5 232t266.5 -242q0 -173 -138 -191q158 -21 158 -216q0 -301 -282 -301t-282 252z" />
<glyph unicode="&#xb4;" horiz-adv-x="682" d="M176 1296l195 304h317l-305 -304h-207z" />
<glyph unicode="&#xb5;" d="M121 -384v1536h262v-818q0 -161 109 -161q125 0 125 207v772h262v-1152h-262v179q-52 -179 -173 -179q-32 0 -61 16v-400h-262z" />
<glyph unicode="&#xb6;" horiz-adv-x="1126" d="M48 1176q0 193 103 276.5t300 83.5h628v-242h-87v-1534h-242v1534h-140v-1534h-242v1056q-130 0 -225 83.5t-95 276.5z" />
<glyph unicode="&#xb7;" horiz-adv-x="682" d="M208 376v271h271v-271h-271z" />
<glyph unicode="&#xb8;" horiz-adv-x="682" d="M64 -404l41 88q93 -37 154.5 -37t91.5 22t30 58q0 69 -102 69q-37 0 -74 -15l-45 41l122 178h106l-90 -127q33 15 78 15q87 0 135.5 -45t48.5 -125t-82 -129t-194.5 -49t-219.5 56z" />
<glyph unicode="&#xb9;" horiz-adv-x="614" d="M112 1246v123q225 0 272 165h138v-926h-186v638h-224z" />
<glyph unicode="&#xba;" horiz-adv-x="614" d="M48 1138v121q0 176 61 242t201.5 66t202.5 -60.5t62 -246.5v-125q0 -176 -59 -236.5t-204.5 -60.5t-204.5 62t-59 238zM223 1078q0 -117 91 -117q86 0 86 119v253q0 111 -84 111h-12q-81 0 -81 -91v-275z" />
<glyph unicode="&#xbb;" d="M169 126v232l189 163l-189 160v228l320 -288v-207zM553 126v232l189 163l-189 160v228l320 -288v-207z" />
<glyph unicode="&#xbc;" horiz-adv-x="1536" d="M51 1246v123q225 0 272 165h138v-926h-186v638h-224zM262 0l872 1504h152l-872 -1504h-152zM903 184v135l306 587h206v-587h87v-135h-87v-190h-186v190h-326zM1041 319h188v378z" />
<glyph unicode="&#xbd;" horiz-adv-x="1536" d="M34 1246v123q225 0 272 165h138v-926h-186v638h-224zM215 0l872 1504h152l-872 -1504h-152zM958 -6q0 119 29 207q30 88 166 215l91 88q88 83 88 171q0 115 -87 115q-104 0 -104 -113v-56h-175v52q0 252 280 252q136 0 204 -71t68 -168q0 -142 -120 -257l-143 -135 q-100 -96 -100 -165h346v-135h-543z" />
<glyph unicode="&#xbe;" horiz-adv-x="1536" d="M25 841v68h175v-51q0 -134 102 -134q56 0 78.5 32t22.5 130.5t-32.5 124t-153.5 25.5v135q91 0 131.5 19.5t40.5 104.5q0 109 -84 109q-94 0 -94 -85v-52h-175v40q0 232 266.5 232t266.5 -242q0 -173 -138 -191q158 -21 158 -216q0 -301 -282 -301t-282 252zM320 0 l872 1504h152l-872 -1504h-152zM923 184v135l306 587h206v-587h87v-135h-87v-190h-186v190h-326zM1061 319h188v378z" />
<glyph unicode="&#xbf;" d="M121 -21.5q0 172.5 89 291.5t181.5 213.5t92.5 250.5v36h241v-42q0 -223 -106 -351l-131 -158q-84 -101 -84 -229q0 -171 118 -171q75 0 109 39.5t34 188.5h253v-75q0 -163 -102 -263.5t-290 -100.5t-296.5 99t-108.5 271.5zM459 914v270h270v-270h-270z" />
<glyph unicode="&#xc0;" horiz-adv-x="1139" d="M18 0l368 1536h385l352 -1536h-309l-76 392h-334l-77 -392h-309zM253 1968h317l195 -304h-207zM449 617h245l-116 631z" />
<glyph unicode="&#xc1;" horiz-adv-x="1139" d="M18 0l368 1536h385l352 -1536h-309l-76 392h-334l-77 -392h-309zM391 1664l195 304h317l-305 -304h-207zM449 617h245l-116 631z" />
<glyph unicode="&#xc2;" horiz-adv-x="1139" d="M18 0l368 1536h385l352 -1536h-309l-76 392h-334l-77 -392h-309zM219 1664l224 304h256l240 -304h-232l-134 169l-122 -169h-232zM449 617h245l-116 631z" />
<glyph unicode="&#xc3;" horiz-adv-x="1139" d="M18 0l368 1536h385l352 -1536h-309l-76 392h-334l-77 -392h-309zM195 1678q6 105 75.5 179.5t160.5 74.5q61 0 157.5 -36.5t123.5 -36.5q76 0 99 84h134q-42 -250 -239 -250q-52 0 -154.5 36.5t-132.5 36.5q-74 0 -98 -88h-126zM449 617h245l-116 631z" />
<glyph unicode="&#xc4;" horiz-adv-x="1139" d="M18 0l368 1536h385l352 -1536h-309l-76 392h-334l-77 -392h-309zM247 1696v236h260v-236h-260zM449 617h245l-116 631zM651 1696v236h260v-236h-260z" />
<glyph unicode="&#xc5;" horiz-adv-x="1139" d="M18 0l368 1536h385l352 -1536h-309l-76 392h-334l-77 -392h-309zM362 1882q0 90 65.5 153.5t155 63.5t153.5 -65.5t64 -154.5t-63 -152t-153.5 -63t-156.5 64q-65 64 -65 154zM449 617h245l-116 631zM464 1880.5q0 -48.5 35 -83t82.5 -34.5t82 35.5t34.5 82t-34.5 83 t-83 36.5t-82.5 -35.5t-34 -84z" />
<glyph unicode="&#xc6;" horiz-adv-x="1593" d="M-45 0l592 1536h991v-225h-496v-390h465v-225h-465v-471h496v-225h-783v392h-360l-131 -392h-309zM476 617h279v634h-60z" />
<glyph unicode="&#xc7;" horiz-adv-x="1139" d="M112 599v325q0 363 114.5 503.5t356 140.5t345.5 -125t104 -387h-282q0 142 -29 211t-110 69q-203 0 -203 -320v-498q0 -172 52.5 -245t152.5 -73q76 0 112 77.5t36 266.5h287q0 -268 -98 -422t-337 -154q-282 0 -392 146q-109 147 -109 485zM368 -404l41 88 q93 -37 154.5 -37t91.5 22t30 58q0 69 -102 69q-37 0 -74 -15l-45 41l122 178h106l-90 -127q33 15 78 15q87 0 135.5 -45t48.5 -125t-82 -129t-194.5 -49t-219.5 56z" />
<glyph unicode="&#xc8;" d="M130 0v1536h815v-225h-528v-390h488v-225h-488v-471h528v-225h-815zM218 1968h317l195 -304h-207z" />
<glyph unicode="&#xc9;" d="M130 0v1536h815v-225h-528v-390h488v-225h-488v-471h528v-225h-815zM356 1664l195 304h317l-305 -304h-207z" />
<glyph unicode="&#xca;" d="M130 0v1536h815v-225h-528v-390h488v-225h-488v-471h528v-225h-815zM184 1664l224 304h256l240 -304h-232l-134 169l-122 -169h-232z" />
<glyph unicode="&#xcb;" d="M130 0v1536h815v-225h-528v-390h488v-225h-488v-471h528v-225h-815zM212 1696v236h260v-236h-260zM616 1696v236h260v-236h-260z" />
<glyph unicode="&#xcc;" horiz-adv-x="569" d="M-37 1968h317l195 -304h-207zM143 0v1536h287v-1536h-287z" />
<glyph unicode="&#xcd;" horiz-adv-x="569" d="M101 1664l195 304h317l-305 -304h-207zM143 0v1536h287v-1536h-287z" />
<glyph unicode="&#xce;" horiz-adv-x="569" d="M-71 1664l224 304h256l240 -304h-232l-134 169l-122 -169h-232zM143 0v1536h287v-1536h-287z" />
<glyph unicode="&#xcf;" horiz-adv-x="569" d="M-43 1696v236h260v-236h-260zM143 0v1536h287v-1536h-287zM361 1696v236h260v-236h-260z" />
<glyph unicode="&#xd0;" horiz-adv-x="1251" d="M40 680v225h108v631h590q136 0 245 -106q78 -73 109 -209.5t31 -433t-38 -451.5t-131.5 -245.5t-272.5 -90.5h-533v680h-108zM435 225h133q167 0 213 109.5t46 424.5t-39 433.5t-174 118.5h-179v-406h208v-225h-208v-455z" />
<glyph unicode="&#xd1;" horiz-adv-x="1251" d="M139 0v1536h300l388 -972v972h287v-1536h-300l-388 948v-948h-287zM243 1678q6 105 75.5 179.5t160.5 74.5q61 0 157.5 -36.5t123.5 -36.5q76 0 99 84h134q-42 -250 -239 -250q-52 0 -154.5 36.5t-132.5 36.5q-74 0 -98 -88h-126z" />
<glyph unicode="&#xd2;" horiz-adv-x="1251" d="M125 599v306q0 379 116 521t400 142t384 -159.5t100 -503.5v-308q0 -340 -108.5 -484.5t-383 -144.5t-391.5 138t-117 493zM299 1968h317l195 -304h-207zM421 518q0 -318 199 -318q209 0 209 306v489q0 341 -204 341t-204 -320v-498z" />
<glyph unicode="&#xd3;" horiz-adv-x="1251" d="M125 599v306q0 379 116 521t400 142t384 -159.5t100 -503.5v-308q0 -340 -108.5 -484.5t-383 -144.5t-391.5 138t-117 493zM421 518q0 -318 199 -318q209 0 209 306v489q0 341 -204 341t-204 -320v-498zM437 1664l195 304h317l-305 -304h-207z" />
<glyph unicode="&#xd4;" horiz-adv-x="1251" d="M125 599v306q0 379 116 521t400 142t384 -159.5t100 -503.5v-308q0 -340 -108.5 -484.5t-383 -144.5t-391.5 138t-117 493zM265 1664l224 304h256l240 -304h-232l-134 169l-122 -169h-232zM421 518q0 -318 199 -318q209 0 209 306v489q0 341 -204 341t-204 -320v-498z " />
<glyph unicode="&#xd5;" horiz-adv-x="1251" d="M125 599v306q0 379 116 521t400 142t384 -159.5t100 -503.5v-308q0 -340 -108.5 -484.5t-383 -144.5t-391.5 138t-117 493zM241 1678q6 105 75.5 179.5t160.5 74.5q61 0 157.5 -36.5t123.5 -36.5q76 0 99 84h134q-42 -250 -239 -250q-52 0 -154.5 36.5t-132.5 36.5 q-74 0 -98 -88h-126zM421 518q0 -318 199 -318q209 0 209 306v489q0 341 -204 341t-204 -320v-498z" />
<glyph unicode="&#xd6;" horiz-adv-x="1251" d="M125 599v306q0 379 116 521t400 142t384 -159.5t100 -503.5v-308q0 -340 -108.5 -484.5t-383 -144.5t-391.5 138t-117 493zM293 1696v236h260v-236h-260zM421 518q0 -318 199 -318q209 0 209 306v489q0 341 -204 341t-204 -320v-498zM697 1696v236h260v-236h-260z" />
<glyph unicode="&#xd7;" d="M48 213l292 292v12l-292 292l158 158l299 -297l297 297l158 -158l-297 -297l297 -299l-158 -158l-297 300l-299 -300z" />
<glyph unicode="&#xd8;" horiz-adv-x="1251" d="M76 -14l116 191q-67 163 -67 426v305q0 354 103 507q104 153 394 153q134 0 216.5 -27t146.5 -97l91 145l103 -70l-117 -188q63 -134 63 -427v-308q0 -340 -109 -484t-372.5 -144t-374.5 106l-94 -148zM421 555l380 619q-15 162 -176 162q-204 0 -204 -321v-460zM442 350 q34 -150 179 -150q208 0 208 305v476z" />
<glyph unicode="&#xd9;" horiz-adv-x="1251" d="M139 458v1078h287v-1054q0 -155 47 -218.5t153 -63.5t153.5 59t47.5 223v1054h287v-1078q0 -253 -107 -371.5t-376.5 -118.5t-380.5 113.5t-111 376.5zM301 1968h317l195 -304h-207z" />
<glyph unicode="&#xda;" horiz-adv-x="1251" d="M139 458v1078h287v-1054q0 -155 47 -218.5t153 -63.5t153.5 59t47.5 223v1054h287v-1078q0 -253 -107 -371.5t-376.5 -118.5t-380.5 113.5t-111 376.5zM439 1664l195 304h317l-305 -304h-207z" />
<glyph unicode="&#xdb;" horiz-adv-x="1251" d="M139 458v1078h287v-1054q0 -155 47 -218.5t153 -63.5t153.5 59t47.5 223v1054h287v-1078q0 -253 -107 -371.5t-376.5 -118.5t-380.5 113.5t-111 376.5zM267 1664l224 304h256l240 -304h-232l-134 169l-122 -169h-232z" />
<glyph unicode="&#xdc;" horiz-adv-x="1251" d="M139 458v1078h287v-1054q0 -155 47 -218.5t153 -63.5t153.5 59t47.5 223v1054h287v-1078q0 -253 -107 -371.5t-376.5 -118.5t-380.5 113.5t-111 376.5zM295 1696v236h260v-236h-260zM699 1696v236h260v-236h-260z" />
<glyph unicode="&#xdd;" horiz-adv-x="1139" d="M16 1536h314l234 -588l225 588h314l-400 -882v-654h-287v654zM372 1664l195 304h317l-305 -304h-207z" />
<glyph unicode="&#xde;" horiz-adv-x="1139" d="M139 0v1536h287v-240h287q165 0 267 -104.5t102 -329.5q0 -462 -459 -462h-197v-400h-287zM426 625h145q105 0 160 51.5t55 177.5t-44 171.5t-171 45.5h-145v-446z" />
<glyph unicode="&#xdf;" d="M125 0v1110q0 251 98 355.5t286.5 104.5t283 -107t94.5 -280q0 -247 -164 -296q98 -28 147 -125t49 -319q0 -473 -287 -473q-83 0 -145 35v187q19 -12 55 -12q111 0 111 195v215q0 109 -35.5 144t-114.5 40v195q68 6 95 27.5t27 116.5v117q0 136 -113 136 q-121 0 -121 -203v-1163h-266z" />
<glyph unicode="&#xe0;" d="M87 313q0 156 77 236q78 80 221.5 137.5t188.5 90t45 93t-24.5 84.5t-104.5 24t-110.5 -34t-30.5 -130h-254q0 205 99.5 286.5t303.5 81.5t293.5 -76t89.5 -252v-697q0 -86 21 -157h-254q-16 38 -16 72t4 58q-107 -160 -244 -160q-305 0 -305 343zM159 1582h317l195 -304 h-207zM353 322q0 -148 127 -148q135 0 135 179v253l-157 -103q-65 -41 -85 -75.5t-20 -105.5z" />
<glyph unicode="&#xe1;" d="M87 313q0 156 77 236q78 80 221.5 137.5t188.5 90t45 93t-24.5 84.5t-104.5 24t-110.5 -34t-30.5 -130h-254q0 205 99.5 286.5t303.5 81.5t293.5 -76t89.5 -252v-697q0 -86 21 -157h-254q-16 38 -16 72t4 58q-107 -160 -244 -160q-305 0 -305 343zM297 1278l195 304h317 l-305 -304h-207zM353 322q0 -148 127 -148q135 0 135 179v253l-157 -103q-65 -41 -85 -75.5t-20 -105.5z" />
<glyph unicode="&#xe2;" d="M87 313q0 156 77 236q78 80 221.5 137.5t188.5 90t45 93t-24.5 84.5t-104.5 24t-110.5 -34t-30.5 -130h-254q0 205 99.5 286.5t303.5 81.5t293.5 -76t89.5 -252v-697q0 -86 21 -157h-254q-16 38 -16 72t4 58q-107 -160 -244 -160q-305 0 -305 343zM125 1278l224 304h256 l240 -304h-232l-134 169l-122 -169h-232zM353 322q0 -148 127 -148q135 0 135 179v253l-157 -103q-65 -41 -85 -75.5t-20 -105.5z" />
<glyph unicode="&#xe3;" d="M87 313q0 156 77 236q78 80 221.5 137.5t188.5 90t45 93t-24.5 84.5t-104.5 24t-110.5 -34t-30.5 -130h-254q0 205 99.5 286.5t303.5 81.5t293.5 -76t89.5 -252v-697q0 -86 21 -157h-254q-16 38 -16 72t4 58q-107 -160 -244 -160q-305 0 -305 343zM101 1292 q6 105 75.5 179.5t160.5 74.5q61 0 157.5 -36.5t123.5 -36.5q76 0 99 84h134q-42 -250 -239 -250q-52 0 -154.5 36.5t-132.5 36.5q-74 0 -98 -88h-126zM353 322q0 -148 127 -148q135 0 135 179v253l-157 -103q-65 -41 -85 -75.5t-20 -105.5z" />
<glyph unicode="&#xe4;" d="M87 313q0 156 77 236q78 80 221.5 137.5t188.5 90t45 93t-24.5 84.5t-104.5 24t-110.5 -34t-30.5 -130h-254q0 205 99.5 286.5t303.5 81.5t293.5 -76t89.5 -252v-697q0 -86 21 -157h-254q-16 38 -16 72t4 58q-107 -160 -244 -160q-305 0 -305 343zM153 1310v236h260v-236 h-260zM353 322q0 -148 127 -148q135 0 135 179v253l-157 -103q-65 -41 -85 -75.5t-20 -105.5zM557 1310v236h260v-236h-260z" />
<glyph unicode="&#xe5;" d="M87 313q0 156 77 236q78 80 221.5 137.5t188.5 90t45 93t-24.5 84.5t-104.5 24t-110.5 -34t-30.5 -130h-254q0 205 99.5 286.5t303.5 81.5t293.5 -76t89.5 -252v-697q0 -86 21 -157h-254q-16 38 -16 72t4 58q-107 -160 -244 -160q-305 0 -305 343zM268 1496 q0 90 65.5 153.5t155 63.5t153.5 -65.5t64 -154.5t-63 -152t-153.5 -63t-156.5 64q-65 64 -65 154zM353 322q0 -148 127 -148q135 0 135 179v253l-157 -103q-65 -41 -85 -75.5t-20 -105.5zM370 1494.5q0 -48.5 35 -83t82.5 -34.5t82 35.5t34.5 82t-34.5 83t-83 36.5 t-82.5 -35.5t-34 -84z" />
<glyph unicode="&#xe6;" horiz-adv-x="1479" d="M92 294.5q0 167.5 67.5 247t272.5 167.5q103 44 145.5 74.5t42.5 93.5q0 101 -123 101q-77 0 -106 -33.5t-29 -130.5h-266q0 185 84.5 276.5t317.5 91.5q144 0 267 -80q88 80 243 80q366 0 366 -361v-293h-496v-177q0 -177 121 -177q109 0 109 116v96h266 q0 -230 -94.5 -323t-280.5 -93t-281 128q-80 -128 -265 -128t-273 78.5t-88 246zM358 324q0 -150 110 -150q144 0 144 200v232l-131 -80q-123 -76 -123 -202zM878 732h230v108q0 138 -109 138q-121 0 -121 -142v-104z" />
<glyph unicode="&#xe7;" horiz-adv-x="909" d="M100 391v383q0 408 359 408q185 0 278 -91.5t93 -244.5v-96h-266v125q0 103 -96 103q-102 0 -102 -186v-436q0 -182 106 -182q92 0 92 182v94h266v-107q0 -373 -365 -373t-365 421zM216 -404l41 88q93 -37 154.5 -37t91.5 22t30 58q0 69 -102 69q-37 0 -74 -15l-45 41 l122 178h106l-90 -127q33 15 78 15q87 0 135.5 -45t48.5 -125t-82 -129t-194.5 -49t-219.5 56z" />
<glyph unicode="&#xe8;" d="M108 439v313q0 430 391 430q199 0 301 -89t102 -394v-177h-528v-166q0 -94 32.5 -138t104.5 -44q125 0 125 158v54h266q0 -416 -369 -416q-221 0 -323 109t-102 360zM188 1582h317l195 -304h-207zM374 726h262v109q0 80 -31.5 111.5t-106 31.5t-99.5 -42t-25 -140v-70z " />
<glyph unicode="&#xe9;" d="M108 439v313q0 430 391 430q199 0 301 -89t102 -394v-177h-528v-166q0 -94 32.5 -138t104.5 -44q125 0 125 158v54h266q0 -416 -369 -416q-221 0 -323 109t-102 360zM326 1278l195 304h317l-305 -304h-207zM374 726h262v109q0 80 -31.5 111.5t-106 31.5t-99.5 -42 t-25 -140v-70z" />
<glyph unicode="&#xea;" d="M108 439v313q0 430 391 430q199 0 301 -89t102 -394v-177h-528v-166q0 -94 32.5 -138t104.5 -44q125 0 125 158v54h266q0 -416 -369 -416q-221 0 -323 109t-102 360zM154 1278l224 304h256l240 -304h-232l-134 169l-122 -169h-232zM374 726h262v109q0 80 -31.5 111.5 t-106 31.5t-99.5 -42t-25 -140v-70z" />
<glyph unicode="&#xeb;" d="M108 439v313q0 430 391 430q199 0 301 -89t102 -394v-177h-528v-166q0 -94 32.5 -138t104.5 -44q125 0 125 158v54h266q0 -416 -369 -416q-221 0 -323 109t-102 360zM182 1310v236h260v-236h-260zM374 726h262v109q0 80 -31.5 111.5t-106 31.5t-99.5 -42t-25 -140v-70z M586 1310v236h260v-236h-260z" />
<glyph unicode="&#xec;" horiz-adv-x="569" d="M-43 1582h317l195 -304h-207zM150 0v1152h266v-1152h-266z" />
<glyph unicode="&#xed;" horiz-adv-x="569" d="M95 1278l195 304h317l-305 -304h-207zM150 0v1152h266v-1152h-266z" />
<glyph unicode="&#xee;" horiz-adv-x="569" d="M-77 1278l224 304h256l240 -304h-232l-134 169l-122 -169h-232zM150 0v1152h266v-1152h-266z" />
<glyph unicode="&#xef;" horiz-adv-x="569" d="M-49 1310v236h260v-236h-260zM150 0v1152h266v-1152h-266zM355 1310v236h260v-236h-260z" />
<glyph unicode="&#xf0;" d="M108 516.5q0 321.5 67 457.5t263 136q139 0 191 -61q-47 151 -187 251l-121 -94l-92 73l109 86q-5 4 -134 83l179 152q70 -25 147 -83l105 83l92 -73l-102 -80q293 -211 293 -692v-230q0 -322 -85 -438.5t-320 -116.5t-320 112.5t-85 434zM374 369q0 -113 31 -154 t113.5 -41t108 40.5t25.5 153.5v365q0 100 -30 146t-108 46t-109 -45.5t-31 -148.5v-362z" />
<glyph unicode="&#xf1;" d="M125 0v1152h266v-130q77 160 246 160q119 0 192.5 -73.5t73.5 -217.5v-891h-266v791q0 101 -24.5 144t-89.5 43q-132 0 -132 -206v-772h-266zM163 1292q6 105 75.5 179.5t160.5 74.5q61 0 157.5 -36.5t123.5 -36.5q76 0 99 84h134q-42 -250 -239 -250q-52 0 -154.5 36.5 t-132.5 36.5q-74 0 -98 -88h-126z" />
<glyph unicode="&#xf2;" d="M108 500v133q0 343 101 446t311.5 103t304 -108t93.5 -412v-138q0 -332 -86 -443t-320 -111t-319 112.5t-85 417.5zM187 1582h317l195 -304h-207zM374 369q0 -121 31 -158t113.5 -37t108 41t25.5 154v425q0 184 -132 184q-77 0 -111.5 -43t-34.5 -142v-424z" />
<glyph unicode="&#xf3;" d="M108 500v133q0 343 101 446t311.5 103t304 -108t93.5 -412v-138q0 -332 -86 -443t-320 -111t-319 112.5t-85 417.5zM325 1278l195 304h317l-305 -304h-207zM374 369q0 -121 31 -158t113.5 -37t108 41t25.5 154v425q0 184 -132 184q-77 0 -111.5 -43t-34.5 -142v-424z" />
<glyph unicode="&#xf4;" d="M108 500v133q0 343 101 446t311.5 103t304 -108t93.5 -412v-138q0 -332 -86 -443t-320 -111t-319 112.5t-85 417.5zM153 1278l224 304h256l240 -304h-232l-134 169l-122 -169h-232zM374 369q0 -121 31 -158t113.5 -37t108 41t25.5 154v425q0 184 -132 184 q-77 0 -111.5 -43t-34.5 -142v-424z" />
<glyph unicode="&#xf5;" d="M108 500v133q0 343 101 446t311.5 103t304 -108t93.5 -412v-138q0 -332 -86 -443t-320 -111t-319 112.5t-85 417.5zM129 1292q6 105 75.5 179.5t160.5 74.5q61 0 157.5 -36.5t123.5 -36.5q76 0 99 84h134q-42 -250 -239 -250q-52 0 -154.5 36.5t-132.5 36.5 q-74 0 -98 -88h-126zM374 369q0 -121 31 -158t113.5 -37t108 41t25.5 154v425q0 184 -132 184q-77 0 -111.5 -43t-34.5 -142v-424z" />
<glyph unicode="&#xf6;" d="M108 500v133q0 343 101 446t311.5 103t304 -108t93.5 -412v-138q0 -332 -86 -443t-320 -111t-319 112.5t-85 417.5zM181 1310v236h260v-236h-260zM374 369q0 -121 31 -158t113.5 -37t108 41t25.5 154v425q0 184 -132 184q-77 0 -111.5 -43t-34.5 -142v-424zM585 1310v236 h260v-236h-260z" />
<glyph unicode="&#xf7;" d="M53 391v225h932v-225h-932zM389 7v240h260v-240h-260zM389 760v240h260v-240h-260z" />
<glyph unicode="&#xf8;" d="M12 -56l143 208q-47 108 -47 348v109q0 341 95 457t302 116t296 -80l109 160l100 -73l-136 -206q44 -110 44 -440.5t-79.5 -451.5t-321.5 -121q-189 0 -279 72l-118 -168zM374 438l273 407q-11 133 -127 133q-77 0 -111.5 -43.5t-34.5 -144.5v-352zM377 286 q6 -112 140 -112q84 0 109.5 40.5t25.5 152.5v328z" />
<glyph unicode="&#xf9;" d="M121 270v882h266v-818q0 -160 107 -160q123 0 123 206v772h266v-1152h-254v178q-65 -208 -252 -208q-139 0 -198 72q-58 73 -58 228zM188 1582h317l195 -304h-207z" />
<glyph unicode="&#xfa;" d="M121 270v882h266v-818q0 -160 107 -160q123 0 123 206v772h266v-1152h-254v178q-65 -208 -252 -208q-139 0 -198 72q-58 73 -58 228zM326 1278l195 304h317l-305 -304h-207z" />
<glyph unicode="&#xfb;" d="M121 270v882h266v-818q0 -160 107 -160q123 0 123 206v772h266v-1152h-254v178q-65 -208 -252 -208q-139 0 -198 72q-58 73 -58 228zM154 1278l224 304h256l240 -304h-232l-134 169l-122 -169h-232z" />
<glyph unicode="&#xfc;" d="M121 270v882h266v-818q0 -160 107 -160q123 0 123 206v772h266v-1152h-254v178q-65 -208 -252 -208q-139 0 -198 72q-58 73 -58 228zM182 1310v236h260v-236h-260zM586 1310v236h260v-236h-260z" />
<glyph unicode="&#xfd;" horiz-adv-x="909" d="M16 1152h279l159 -828l156 828h270l-304 -1288q-34 -140 -97 -200t-196 -60q-41 0 -123 9v207q24 -3 69 -3q91 0 91 59q0 44 -17 109zM280 1278l195 304h317l-305 -304h-207z" />
<glyph unicode="&#xfe;" d="M137 -384v1918h266v-512q69 160 228 160q136 0 210 -87.5t74 -310.5v-423q0 -391 -274 -391q-169 0 -238 144v-498h-266zM403 380q0 -206 129 -206q117 0 117 207v422q0 175 -114 175q-132 0 -132 -229v-369z" />
<glyph unicode="&#xff;" horiz-adv-x="909" d="M16 1152h279l159 -828l156 828h270l-304 -1288q-34 -140 -97 -200t-196 -60q-41 0 -123 9v207q24 -3 69 -3q91 0 91 59q0 44 -17 109zM136 1310v236h260v-236h-260zM540 1310v236h260v-236h-260z" />
<glyph unicode="&#x152;" horiz-adv-x="1706" d="M125 674v220q0 331 114.5 502.5t321.5 171.5q109 0 183 -49.5t101 -126.5v144h781v-225h-512v-390h476v-225h-476v-471h512v-225h-781v176q-27 -94 -100 -151t-181 -57q-439 0 -439 706zM412 618q0 -215 51 -316.5t160 -101.5t156.5 54.5t47.5 198.5v631q0 252 -180 252 q-235 0 -235 -422v-296z" />
<glyph unicode="&#x153;" horiz-adv-x="1479" d="M96 500v111q0 352 93 461.5t268 109.5t296 -112q51 59 112.5 85.5t173.5 26.5q202 0 282.5 -126.5t80.5 -310.5v-217h-512v-136q0 -124 25.5 -171t88.5 -47q132 0 132 132v80h266q0 -226 -95.5 -321t-273 -95t-278.5 112q-102 -112 -296 -112t-279 112q-84 113 -84 418z M362 444q0 -175 28 -222.5t101.5 -47.5t103 57t29.5 219v344q0 184 -135 184q-73 0 -100 -49.5t-27 -157.5v-327zM886 732h250v79q0 167 -125 167t-125 -173v-73z" />
<glyph unicode="&#x178;" horiz-adv-x="1139" d="M16 1536h314l234 -588l225 588h314l-400 -882v-654h-287v654zM228 1696v236h260v-236h-260zM632 1696v236h260v-236h-260z" />
<glyph unicode="&#x2c6;" horiz-adv-x="682" d="M-16 1296l224 304h256l240 -304h-232l-134 169l-122 -169h-232z" />
<glyph unicode="&#x2dc;" horiz-adv-x="682" d="M-32 1310q6 105 75.5 179.5t160.5 74.5q61 0 157.5 -36.5t123.5 -36.5q76 0 99 84h134q-42 -250 -239 -250q-52 0 -154.5 36.5t-132.5 36.5q-74 0 -98 -88h-126z" />
<glyph unicode="&#x2000;" horiz-adv-x="1049" />
<glyph unicode="&#x2001;" horiz-adv-x="2099" />
<glyph unicode="&#x2002;" horiz-adv-x="1049" />
<glyph unicode="&#x2003;" horiz-adv-x="2099" />
<glyph unicode="&#x2004;" horiz-adv-x="699" />
<glyph unicode="&#x2005;" horiz-adv-x="524" />
<glyph unicode="&#x2006;" horiz-adv-x="349" />
<glyph unicode="&#x2007;" horiz-adv-x="349" />
<glyph unicode="&#x2008;" horiz-adv-x="262" />
<glyph unicode="&#x2009;" horiz-adv-x="419" />
<glyph unicode="&#x200a;" horiz-adv-x="116" />
<glyph unicode="&#x2010;" horiz-adv-x="682" d="M96 522v236h480v-236h-480z" />
<glyph unicode="&#x2011;" horiz-adv-x="682" d="M96 522v236h480v-236h-480z" />
<glyph unicode="&#x2012;" horiz-adv-x="682" d="M96 522v236h480v-236h-480z" />
<glyph unicode="&#x2013;" d="M0 522v224h1024v-224h-1024z" />
<glyph unicode="&#x2014;" horiz-adv-x="2048" d="M0 522v224h2048v-224h-2048z" />
<glyph unicode="&#x2018;" horiz-adv-x="569" d="M164 982v260q0 143 63 208.5t186 85.5v-93q-131 -20 -131 -159v-36h122v-266h-240z" />
<glyph unicode="&#x2019;" horiz-adv-x="569" d="M156 982v93q131 20 131 159v36h-122v266h240v-260q0 -143 -63 -208.5t-186 -85.5z" />
<glyph unicode="&#x201a;" horiz-adv-x="569" d="M168 -191q131 20 131 159v36h-122v266h240v-260q0 -143 -63 -208.5t-186 -85.5v93z" />
<glyph unicode="&#x201c;" d="M190 982v260q0 143 63 208.5t186 85.5v-93q-131 -20 -131 -159v-36h122v-266h-240zM590 982v260q0 143 63 208.5t186 85.5v-93q-131 -20 -131 -159v-36h122v-266h-240z" />
<glyph unicode="&#x201d;" d="M185 982v93q131 20 131 159v36h-122v266h240v-260q0 -143 -63 -208.5t-186 -85.5zM585 982v93q131 20 131 159v36h-122v266h240v-260q0 -143 -63 -208.5t-186 -85.5z" />
<glyph unicode="&#x201e;" d="M187 -191q131 20 131 159v36h-122v266h240v-260q0 -143 -63 -208.5t-186 -85.5v93zM587 -191q131 20 131 159v36h-122v266h240v-260q0 -143 -63 -208.5t-186 -85.5v93z" />
<glyph unicode="&#x2022;" horiz-adv-x="860" d="M48 772q0 160 111 271t271.5 111t273 -112.5t112.5 -271t-113.5 -271.5t-273.5 -113t-271 113q-110 113 -110 273z" />
<glyph unicode="&#x2026;" horiz-adv-x="2048" d="M207 0v270h270v-270h-270zM895 0v270h270v-270h-270zM1583 0v270h270v-270h-270z" />
<glyph unicode="&#x202f;" horiz-adv-x="419" />
<glyph unicode="&#x2039;" horiz-adv-x="569" d="M118 414l320 -288v232l-189 163l189 160v228l-320 -288v-207z" />
<glyph unicode="&#x203a;" horiz-adv-x="569" d="M131 126v232l189 163l-189 160v228l320 -288v-207z" />
<glyph unicode="&#x205f;" horiz-adv-x="524" />
<glyph unicode="&#x20ac;" d="M36 586l22 134h126v112h-148l22 134h126q0 322 90.5 445.5t305.5 123.5t305 -101.5t98 -331.5h-264q0 208 -114 208q-83 0 -108.5 -69t-25.5 -259v-16h304l-22 -134h-282v-112h256l-22 -134h-234v-30q0 -225 34 -294q35 -68 101 -68t89.5 57t23.5 199h264 q0 -481 -368 -481q-260 0 -346 139q-85 140 -85 478h-148z" />
<glyph unicode="&#x2122;" horiz-adv-x="1761" d="M6 1377v159h630v-159h-234v-673h-162v673h-234zM723 704v832h264l169 -497l165 497h264v-832h-162v686l-222 -686h-94l-222 686v-686h-162z" />
<glyph unicode="&#xe000;" horiz-adv-x="1150" d="M0 0v1150h1150v-1150h-1150z" />
<glyph unicode="&#xfb01;" d="M29 957v195h96v123q0 138 61 198.5t220 60.5h97v-213q-39 12 -59 12q-53 0 -53 -54v-127h112v-195h-112v-957h-266v957h-96zM653 0v1152h266v-1152h-266zM653 1296v243h266v-243h-266z" />
<glyph unicode="&#xfb02;" d="M29 957v195h96v123q0 138 61 198.5t220 60.5h97v-213q-31 12 -59 12q-53 0 -53 -54v-127h112v-195h-112v-957h-266v957h-96zM637 0v1536h266v-1536h-266z" />
</font>
</defs>
</svg>
